<?xml version="1.0" encoding="utf-8"?>
<!-- Generator: Adobe Illustrator 24.0.2, SVG Export Plug-In . SVG Version: 6.00 Build 0)  -->
<svg version="1.1" id="圖層_1" xmlns="http://www.w3.org/2000/svg" xmlns:xlink="http://www.w3.org/1999/xlink" x="0px" y="0px"
	 viewBox="0 0 22.1 21.9" style="enable-background:new 0 0 22.1 21.9;" xml:space="preserve">
<style type="text/css">
	.st0{fill:#FFFFFF;}
	.st1{fill:#1877F2;}
</style>
<g>
	<rect x="6.9" y="2.4" class="st0" width="13.1" height="19.5"/>
	<path class="st1" d="M20.7,0H1.2C0.5,0,0,0.5,0,1.2v19.5c0,0.7,0.5,1.2,1.2,1.2h10.5v-8.5H8.9v-3.3h2.8V7.7c0-2.8,1.7-4.4,4.3-4.4
		c1.2,0,2.3,0.1,2.6,0.1v3h-1.7c-1.4,0-1.6,0.7-1.6,1.6v2.1h3.3l-0.4,3.3h-2.9v8.5h5.6c0.7,0,1.2-0.5,1.2-1.2V1.2
		C21.9,0.5,21.4,0,20.7,0z"/>
</g>
</svg>
